Coordinates
version=1
nRows=12
nColumns=34
inDegrees=no

Units are S.I. units (second, meters, Newtons, ...)
If the header above contains a line with 'inDegrees', this indicates whether rotational values are in degrees (yes) or radians (no).

endheader
time	pelvis_tilt	pelvis_list	pelvis_rotation	pelvis_tx	pelvis_ty	pelvis_tz	hip_flexion_r	hip_adduction_r	hip_rotation_r	knee_angle_r	ankle_angle_r	subtalar_angle_r	mtp_angle_r	hip_flexion_l	hip_adduction_l	hip_rotation_l	knee_angle_l	ankle_angle_l	subtalar_angle_l	mtp_angle_l	lumbar_extension	lumbar_bending	lumbar_rotation	arm_flex_r	arm_add_r	arm_rot_r	elbow_flex_r	pro_sup_r	arm_flex_l	arm_add_l	arm_rot_l	elbow_flex_l	pro_sup_l
0.45	0.211545	-0.088506	0.0727672	0.426399	1.05752	-0.171576	-0.38411	0.169801	-0.119576	0.0893063	0.325053	0.170782	-0.0193562	0.287663	-0.21775	-0.312686	0.213665	0.171739	0.39114	-0.0205817	-0.518722	-0.271657	0.150493	0.0759054	-0.30797	-0.121157	1.02699	1.93648	-0.09471	-0.15724	-0.38425	0.422433	1.67926
0.46	0.209483	-0.0877413	0.0722237	0.439619	1.05477	-0.172076	-0.390801	0.167611	-0.126662	0.101248	0.342804	0.180623	-0.0194162	0.28964	-0.214235	-0.315932	0.182301	0.179226	0.41299	-0.0205106	-0.519292	-0.28256	0.152018	0.0785151	-0.3153	-0.127602	1.04847	1.93615	-0.108249	-0.156707	-0.389427	0.416753	1.67975
0.47	0.207623	-0.087076	0.0711467	0.453024	1.05205	-0.172646	-0.397241	0.165114	-0.132956	0.114253	0.359615	0.189377	-0.0194762	0.292466	-0.212184	-0.319049	0.160886	0.186424	0.426857	-0.0204394	-0.519643	-0.293353	0.153873	0.0797115	-0.321852	-0.13488	1.0693	1.93588	-0.122154	-0.156109	-0.394666	0.41311	1.68042
0.48	0.205919	-0.0863765	0.0694814	0.466621	1.04936	-0.173271	-0.403464	0.162177	-0.138099	0.128163	0.375186	0.196637	-0.0195363	0.296234	-0.211639	-0.32252	0.149805	0.192223	0.432884	-0.0203681	-0.51972	-0.304215	0.156057	0.0794062	-0.327461	-0.142986	1.08936	1.93546	-0.136225	-0.155485	-0.400043	0.411136	1.68105
0.49	0.204295	-0.085447	0.0672638	0.480416	1.04672	-0.173951	-0.409457	0.158643	-0.141871	0.142846	0.389241	0.202016	-0.0195963	0.300924	-0.212378	-0.326412	0.148751	0.195435	0.43169	-0.0202968	-0.519493	-0.315344	0.158432	0.0775537	-0.331963	-0.151854	1.1085	1.93477	-0.150258	-0.154892	-0.405641	0.410462	1.68142
0.5	0.202668	-0.0840313	0.0646159	0.494414	1.04418	-0.174712	-0.415143	0.154357	-0.14422	0.158245	0.401532	0.205168	-0.0196563	0.3064	-0.213955	-0.330371	0.156743	0.194972	0.424221	-0.0202255	-0.518964	-0.326913	0.160744	0.0741551	-0.335211	-0.161354	1.12655	1.93372	-0.164043	-0.154394	-0.411539	0.410736	1.68139
0.51	0.200955	-0.0818862	0.061734	0.508606	1.04175	-0.175583	-0.420375	0.149187	-0.145276	0.174424	0.411836	0.205807	-0.0197163	0.312444	-0.215763	-0.333741	0.172285	0.190046	0.411626	-0.0201541	-0.518177	-0.339057	0.162656	0.0692585	-0.337091	-0.171305	1.14333	1.93227	-0.177371	-0.154057	-0.417801	0.411632	1.68084
0.52	0.199082	-0.0788107	0.0588651	0.522979	1.03946	-0.176598	-0.424924	0.143052	-0.145334	0.191606	0.419934	0.203711	-0.0197764	0.31881	-0.217161	-0.335769	0.193603	0.180366	0.395176	-0.0200827	-0.517218	-0.351832	0.163801	0.0629583	-0.337524	-0.181479	1.15866	1.93046	-0.190033	-0.153939	-0.424464	0.412851	1.67972
0.53	0.197	-0.0746825	0.0562753	0.537509	1.03732	-0.177791	-0.42848	0.135942	-0.144822	0.210193	0.425575	0.19872	-0.0198364	0.325279	-0.21759	-0.335827	0.218923	0.166252	0.376183	-0.0200112	-0.5162	-0.365196	0.163822	0.0553922	-0.336482	-0.191623	1.17236	1.92833	-0.201822	-0.154087	-0.431531	0.414133	1.67805
0.54	0.194689	-0.0694759	0.0542152	0.552163	1.03537	-0.17919	-0.430662	0.127911	-0.144247	0.230754	0.428439	0.190715	-0.0198964	0.331691	-0.216666	-0.333574	0.246688	0.148639	0.355922	-0.0199398	-0.515256	-0.379009	0.162425	0.0467361	-0.333982	-0.201475	1.1843	1.926	-0.21254	-0.154531	-0.438963	0.415249	1.67592
0.55	0.192153	-0.0632594	0.0528843	0.566899	1.03361	-0.180816	-0.431036	0.11906	-0.144135	0.253991	0.428093	0.179593	-0.0199565	0.337949	-0.214229	-0.329031	0.275697	0.12896	0.335529	-0.0198682	-0.514525	-0.393043	0.159403	0.0371963	-0.330089	-0.210781	1.19435	1.92363	-0.221999	-0.155279	-0.44668	0.416017	1.67346
0.56	0.189415	-0.0561754	0.0524014	0.58167	1.03207	-0.182675	-0.429152	0.109501	-0.144969	0.280672	0.423967	0.165241	-0.0200165	0.343985	-0.210333	-0.322557	0.305128	0.10894	0.315928	-0.0197967	-0.51414	-0.407021	0.154662	0.0269996	-0.324909	-0.219309	1.20244	1.9214	-0.23003	-0.156321	-0.454556	0.416307	1.67087
